HIERARCHY
ROOT hip
{
	OFFSET 0.000000 0.000000 0.000000
	CHANNELS 6 Xposition Yposition Zposition Zrotation Yrotation Xrotation 
	JOINT lhipjoint
	{
		OFFSET 0.000000 0.000000 0.000000
		CHANNELS 3 Zrotation Yrotation Xrotation
		JOINT lfemur
		{
			OFFSET 1.363060 -1.794630 0.839290
			CHANNELS 3 Zrotation Yrotation Xrotation
			JOINT ltibia
			{
				OFFSET 2.448110 -6.726130 0.000000
				CHANNELS 3 Zrotation Yrotation Xrotation
				JOINT lfoot
				{
					OFFSET 2.562200 -7.039590 0.000000
					CHANNELS 3 Zrotation Yrotation Xrotation
					JOINT ltoes
					{
						OFFSET 0.157640 -0.433110 2.322550
						CHANNELS 3 Zrotation Yrotation Xrotation
						End Site
						{
							OFFSET 0.000000 0.000000 0.000000
						}
					}
				}
			}
		}
	}
	JOINT rhipjoint
	{
		OFFSET 0.000000 0.000000 0.000000
		CHANNELS 3 Zrotation Yrotation Xrotation
		JOINT rfemur
		{
			OFFSET -1.305520 -1.794630 0.839290
			CHANNELS 3 Zrotation Yrotation Xrotation
			JOINT rtibia
			{
				OFFSET -2.542530 -6.985550 0.000000
				CHANNELS 3 Zrotation Yrotation Xrotation
				JOINT rfoot
				{
					OFFSET -2.568260 -7.056230 0.000000
					CHANNELS 3 Zrotation Yrotation Xrotation
					JOINT rtoes
					{
						OFFSET -0.164730 -0.452590 2.363150
						CHANNELS 3 Zrotation Yrotation Xrotation
						End Site
						{
							OFFSET 0.000000 0.000000 0.000000
						}
					}
				}
			}
		}
	}
	JOINT lowerback
	{
		OFFSET 0.000000 0.000000 0.000000
		CHANNELS 3 Zrotation Yrotation Xrotation
		JOINT upperback
		{
			OFFSET 0.028270 2.035590 -0.193380
			CHANNELS 3 Zrotation Yrotation Xrotation
			JOINT thorax
			{
				OFFSET 0.056720 2.048850 -0.042750
				CHANNELS 3 Zrotation Yrotation Xrotation
				JOINT lowerneck
				{
					OFFSET 0.000000 0.000000 0.000000
					CHANNELS 3 Zrotation Yrotation Xrotation
					JOINT upperneck
					{
						OFFSET -0.054170 1.746240 0.172020
						CHANNELS 3 Zrotation Yrotation Xrotation
						JOINT head
						{
							OFFSET 0.104070 1.761360 -0.123970
							CHANNELS 3 Zrotation Yrotation Xrotation
							End Site
							{
								OFFSET 0.000000 0.000000 0.000000
							}
						}
					}
				}
				JOINT lclavicle
				{
					OFFSET 0.000000 0.000000 0.000000
					CHANNELS 3 Zrotation Yrotation Xrotation
					JOINT lhumerus
					{
						OFFSET 3.362410 1.200890 -0.311210
						CHANNELS 3 Zrotation Yrotation Xrotation
						JOINT lradius
						{
							OFFSET 4.983000 -0.000000 -0.000000
							CHANNELS 3 Zrotation Yrotation Xrotation
							JOINT lwrist
							{
								OFFSET 3.483560 -0.000000 -0.000000
								CHANNELS 3 Zrotation Yrotation Xrotation
								JOINT lhand
								{
									OFFSET 0.000000 0.000000 0.000000
									CHANNELS 3 Zrotation Yrotation Xrotation
									JOINT lfingers
									{
										OFFSET 0.715260 -0.000000 -0.000000
										CHANNELS 3 Zrotation Yrotation Xrotation
										End Site
										{
											OFFSET 0.000000 0.000000 0.000000
										}
									}
								}
								JOINT lthumb
								{
									OFFSET 0.000000 0.000000 0.000000
									CHANNELS 3 Zrotation Yrotation Xrotation
									End Site
									{
										OFFSET 0.000000 0.000000 0.000000
									}
								}
							}
						}
					}
				}
				JOINT rclavicle
				{
					OFFSET 0.000000 0.000000 0.000000
					CHANNELS 3 Zrotation Yrotation Xrotation
					JOINT rhumerus
					{
						OFFSET -3.136600 1.374050 -0.404650
						CHANNELS 3 Zrotation Yrotation Xrotation
						JOINT rradius
						{
							OFFSET -5.241900 -0.000000 -0.000000
							CHANNELS 3 Zrotation Yrotation Xrotation
							JOINT rwrist
							{
								OFFSET -3.444170 -0.000000 -0.000000
								CHANNELS 3 Zrotation Yrotation Xrotation
								JOINT rhand
								{
									OFFSET 0.000000 0.000000 0.000000
									CHANNELS 3 Zrotation Yrotation Xrotation
									JOINT rfingers
									{
										OFFSET -0.622530 -0.000000 -0.000000
										CHANNELS 3 Zrotation Yrotation Xrotation
										End Site
										{
											OFFSET 0.000000 0.000000 0.000000
										}
									}
								}
								JOINT rthumb
								{
									OFFSET 0.000000 0.000000 0.000000
									CHANNELS 3 Zrotation Yrotation Xrotation
									End Site
									{
										OFFSET 0.000000 0.000000 0.000000
									}
								}
							}
						}
					}
				}
			}
		}
	}
}
MOTION
Frames: 9
Frame Time: 0.008333
-20.035578 18.670963 -1.359876 9.394802 -62.081911 -4.832760 3.843736 3.645561 0.003716 -20.680344 -7.043952 -1.809730 1.904502 8.140316 26.852052 2.063931 -7.052873 6.125257 0.564900 -4.813800 -13.378200 -7.380815 -3.856998 -1.421795 20.498763 2.723999 -15.420665 -4.433254 -9.592011 30.566724 -0.514111 13.069218 -3.853006 -0.058900 1.565600 -4.306500 -1.722245 3.949597 -2.293258 -0.597418 5.745946 -2.217820 -3.214175 3.538890 9.938669 -0.560213 -10.014871 -10.344381 8.179816 -15.392251 20.413200 0.344400 -7.043200 2.476700 2.252329 -7.384834 4.539230 -83.131350 3.659658 6.062767 3.445120 -21.379808 -1.294856 0.500847 0.593357 42.107941 12.684160 -5.772613 -1.478000 -7.125000 0.000000 0.000000 -10.315300 23.270700 5.487200 5.555172 8.513610 2.941709 -6.732095 27.837373 -8.537602 -38.701271 50.699276 -16.715371 -0.160670 0.658565 -24.128318 7.304279 -0.033579 -0.089200 7.125000 0.000000 0.000000 25.971400 -29.961200 10.535700 
-20.058891 18.673574 -1.360553 9.492970 -62.103316 -4.907809 3.845735 3.645904 0.007202 -20.718623 -7.045626 -1.899640 1.911775 8.150525 26.878976 2.058260 -7.019005 5.996641 0.586500 -4.903300 -13.632900 -7.378498 -3.853477 -1.436468 20.491592 2.639624 -15.349425 -4.423558 -9.575566 30.514413 -0.513282 13.140414 -3.861481 -0.062600 1.613900 -4.439800 -1.709886 3.948996 -2.240240 -0.597983 5.740355 -2.218102 -3.238190 3.537635 9.893184 -0.504336 -9.999019 -10.284373 8.214847 -15.382534 20.372611 0.345900 -7.038500 2.436900 2.289603 -7.403540 4.523864 -83.200571 3.647957 4.924192 3.016924 -20.788316 -1.233621 0.497921 0.535334 43.239273 12.677884 -5.781032 -1.466200 -7.125000 0.000000 0.000000 -10.338600 23.308800 5.490800 5.553361 8.532919 2.941260 -6.591109 27.693351 -8.445733 -39.225156 50.954525 -17.063267 -0.171419 0.663978 -24.206178 7.165279 0.103529 -0.071700 7.125000 0.000000 0.000000 25.844500 -29.851800 10.549200 
-20.080559 18.675799 -1.359779 9.606658 -62.182003 -4.952237 3.847565 3.646219 0.010213 -20.762714 -7.032127 -2.040841 1.919000 8.162357 26.907308 2.054121 -6.990688 5.855868 0.613200 -5.011800 -13.942100 -7.377499 -3.854129 -1.438342 20.474613 2.613379 -15.333948 -4.413428 -9.559206 30.459454 -0.509552 13.251041 -3.825703 -0.061100 1.595400 -4.388900 -1.680062 3.976279 -2.235507 -0.606193 5.773759 -2.221863 -3.305003 3.558686 9.842492 -0.431530 -9.981407 -10.186824 8.272380 -15.380864 20.318074 0.359500 -7.040400 2.379700 2.316320 -7.426005 4.512827 -83.230430 3.628387 3.805465 2.616976 -20.197783 -1.175508 0.492428 0.482176 44.364949 12.648258 -5.734775 -1.440600 -7.125000 0.000000 0.000000 -10.379600 23.399700 5.491200 5.551514 8.547063 2.942385 -6.439211 27.523459 -8.314253 -39.734147 51.190796 -17.404339 -0.181965 0.669137 -24.350822 6.954997 0.225693 -0.055900 7.125000 0.000000 0.000000 25.669900 -29.758700 10.526900 
-20.101260 18.678604 -1.359102 9.712415 -62.226039 -5.017066 3.850292 3.646147 0.013890 -20.811268 -7.051848 -2.150851 1.924012 8.168798 26.920327 2.051600 -6.970381 5.685783 0.661700 -5.202400 -14.486700 -7.375213 -3.854631 -1.443152 20.459264 2.556446 -15.309880 -4.404556 -9.545007 30.411919 -0.507367 13.342099 -3.822587 -0.064300 1.635800 -4.500200 -1.667565 3.985177 -2.217321 -0.611047 5.781818 -2.226828 -3.345774 3.566763 9.765358 -0.414111 -9.957501 -10.033914 8.348328 -15.378192 20.241849 0.399000 -7.047000 2.309000 2.346086 -7.460839 4.502105 -83.293561 3.576038 2.457077 2.189057 -19.545179 -1.117539 0.490756 0.418283 45.755032 12.709048 -5.710132 -1.428800 -7.125000 0.000000 0.000000 -10.360000 23.469700 5.463500 5.541907 8.555215 2.944078 -6.303070 27.374260 -8.128687 -40.198214 51.405280 -17.706259 -0.193987 0.667666 -24.486427 6.647480 0.457067 -0.027200 7.125000 0.000000 0.000000 25.400700 -29.565600 10.524800 
-20.121671 18.680249 -1.358521 9.818102 -62.287164 -5.080942 3.852244 3.646436 0.015837 -20.851864 -7.075213 -2.241676 1.925982 8.173151 26.926633 2.059290 -7.003852 5.550193 0.690200 -5.311200 -14.798400 -7.374871 -3.850559 -1.452398 20.443029 2.531863 -15.259556 -4.396178 -9.530811 30.366176 -0.504836 13.415995 -3.798376 -0.062300 1.611000 -4.431800 -1.677321 3.978176 -2.217030 -0.612809 5.773739 -2.226683 -3.363756 3.563449 9.742201 -0.376017 -9.945751 -9.966257 8.378280 -15.372596 20.204453 0.405800 -7.046500 2.266000 2.374093 -7.472430 4.489406 -83.351403 3.525165 1.287949 1.841816 -19.001224 -1.071195 0.486059 0.370374 46.868778 12.718031 -5.650827 -1.406300 -7.125000 0.000000 0.000000 -10.373500 23.565800 5.447500 5.540499 8.563363 2.945773 -6.273689 27.259042 -7.956805 -40.577384 51.594458 -17.945051 -0.206926 0.657986 -24.739625 6.256453 0.789169 0.010700 7.125000 0.000000 0.000000 25.048800 -29.276900 10.542300 
-20.141017 18.682764 -1.357554 9.929123 -62.344579 -5.134148 3.853220 3.646263 0.017104 -20.884913 -7.091052 -2.362056 1.923429 8.173186 26.917451 2.076035 -7.083132 5.451115 0.715000 -5.403700 -15.063600 -7.375706 -3.848899 -1.455621 20.422264 2.532970 -15.244357 -4.389079 -9.518655 30.325264 -0.502816 13.480421 -3.790807 -0.060800 1.591000 -4.376700 -1.720798 3.963397 -2.246925 -0.611008 5.758038 -2.229190 -3.314408 3.555323 9.712453 -0.474603 -9.899652 -9.896097 8.484634 -15.354815 20.163854 0.473300 -7.043800 2.255900 2.401427 -7.504010 4.474991 -83.451712 3.457240 0.028159 1.476700 -18.433301 -1.026717 0.486694 0.319370 48.088866 12.803085 -5.574722 -1.388900 -7.125000 0.000000 0.000000 -10.336700 23.673500 5.401500 5.524867 8.553109 2.945847 -6.287993 27.140225 -7.721070 -40.844142 51.733524 -18.099063 -0.224647 0.642229 -24.983099 5.851460 1.300943 0.062700 7.125000 0.000000 0.000000 24.651400 -28.819800 10.641200 
-20.159397 18.685376 -1.357264 10.039366 -62.408633 -5.165843 3.855262 3.646273 0.018937 -20.919516 -7.152420 -2.476886 1.919198 8.170127 26.895478 2.087121 -7.132579 5.336300 0.740400 -5.497000 -15.331600 -7.377353 -3.848546 -1.454292 20.411802 2.555872 -15.251074 -4.383445 -9.507670 30.288519 -0.502468 13.528498 -3.809577 -0.064200 1.634200 -4.495900 -1.763947 3.955599 -2.299522 -0.613622 5.754505 -2.232188 -3.300256 3.554025 9.700997 -0.525741 -9.864670 -9.866602 8.576992 -15.345589 20.126882 0.521900 -7.042400 2.251100 2.421860 -7.523793 4.458907 -83.508543 3.369206 -1.131892 1.164134 -17.910363 -0.987215 0.483540 0.276641 49.197092 12.835127 -5.469701 -1.360300 -7.125000 0.000000 0.000000 -10.335700 23.808100 5.368300 5.514103 8.544567 2.945896 -6.309700 27.005217 -7.513692 -41.075572 51.852322 -18.235409 -0.245096 0.628516 -25.231747 5.507240 1.851602 0.112300 7.125000 0.000000 0.000000 24.294900 -28.325400 10.775000 
-20.177002 18.687020 -1.356780 10.104575 -62.472188 -5.177352 3.855706 3.645599 0.020019 -20.926255 -7.185933 -2.578298 1.913509 8.164804 26.868355 2.100004 -7.193022 5.261006 0.757500 -5.558600 -15.508900 -7.380217 -3.847206 -1.456887 20.417840 2.577517 -15.227477 -4.376653 -9.495270 30.248805 -0.500529 13.596437 -3.786610 -0.060200 1.582900 -4.354200 -1.797202 3.929921 -2.339143 -0.613645 5.725532 -2.233502 -3.289350 3.540781 9.703726 -0.577924 -9.830280 -9.883874 8.652978 -15.331997 20.115957 0.560000 -7.035700 2.272900 2.443278 -7.534646 4.437967 -83.567272 3.238665 -2.403624 0.854546 -17.362812 -0.948905 0.480695 0.225245 50.354035 12.913351 -5.430757 -1.349700 -7.125000 0.000000 0.000000 -10.302500 23.879200 5.333400 5.501961 8.536223 2.941609 -6.348613 26.921934 -7.324083 -41.236514 51.947635 -18.319144 -0.269612 0.611403 -25.445122 5.205606 2.539899 0.169500 7.125000 0.000000 0.000000 23.947200 -27.700100 10.985400 
-20.193543 18.689052 -1.355329 10.168979 -62.528786 -5.188345 3.856451 3.644594 0.021754 -20.934500 -7.260366 -2.665000 1.905794 8.157486 26.834682 2.114206 -7.261464 5.215922 0.759700 -5.566600 -15.531900 -7.382953 -3.845287 -1.460444 20.424597 2.593926 -15.206392 -4.370672 -9.483081 30.210342 -0.500435 13.627725 -3.791951 -0.063100 1.620600 -4.458300 -1.832776 3.902777 -2.395788 -0.613420 5.696488 -2.233953 -3.272669 3.527289 9.729104 -0.633052 -9.802866 -9.945043 8.730141 -15.329604 20.126204 0.594900 -7.032100 2.318200 2.462922 -7.538686 4.415049 -83.629913 3.101613 -3.564631 0.581056 -16.866159 -0.915388 0.477412 0.182119 51.422235 12.972812 -5.355106 -1.330600 -7.125000 0.000000 0.000000 -10.281700 23.982000 5.297400 5.490899 8.524882 2.937140 -6.435612 26.849689 -7.158803 -41.378575 52.043519 -18.397535 -0.292064 0.598661 -25.623453 5.002458 3.146542 0.216900 7.125000 0.000000 0.000000 23.690800 -27.147600 11.188500 
